<?xml version="1.0" encoding="utf-8"?><!DOCTYPE svg PUBLIC "-//W3C//DTD SVG 1.1//EN" "http://www.w3.org/Graphics/SVG/1.1/DTD/svg11.dtd"><svg version="1.1" xmlns="http://www.w3.org/2000/svg" xmlns:xlink="http://www.w3.org/1999/xlink" x="0px" y="0px" viewBox="9.229 2.075 80.687 125" enable-background="new 9.229 2.075 80.687 100" xml:space="preserve"><path d="M49.572,2.075c-22.281,0-40.343,18.065-40.343,40.354c0,22.285,40.343,59.645,40.343,59.645s40.343-37.36,40.343-59.645
	C89.915,20.14,71.853,2.075,49.572,2.075z M50.716,94.199l-0.053-41.245c0,0,4.53-1.075,4.53-7.812s0-12.609,0-12.609h-3.566v11.138
	h-2.548L49.05,32.547l-2.95-0.021l-0.022,11.145h-2.717V32.461h-3.736c0,0,0,3.396,0,12.227c0,8.259,5.435,8.153,5.435,8.153v39.062
	c-2.904-2.908-7.063-7.235-11.373-12.272l0.107-47.702c-11.887,0.934-8.745,15.625-8.747,15.624c2.632,12.078,2.972,23.5,2.972,23.5
	v1.588c-6.971-9.11-12.99-19.255-12.99-27.157c0-18.798,15.231-34.032,34.023-34.032c18.789,0,34.021,15.233,34.021,34.032
	c0,7.637-5.617,17.372-12.288,26.241l-0.054-14.038c0,0,4.531-1.074,4.531-7.812c0-6.737,0-12.609,0-12.609
	c0-3.447-1.05-5.156-5.466-5.156c-3.481,0-5.021,0-5.021,0c-5.699,0-5.084,5.084-5.084,5.084s0,3.396,0,12.228
	c0,8.258,5.435,8.152,5.435,8.152v21.216C59.209,85.794,53.454,91.549,50.716,94.199z"/><text x="9.229" y="117.075" fill="#000000" font-size="5px" font-weight="bold" font-family="'Helvetica Neue', Helvetica, Arial-Unicode, Arial, Sans-serif">Created by Ahmed Elzahra</text><text x="9.229" y="122.075" fill="#000000" font-size="5px" font-weight="bold" font-family="'Helvetica Neue', Helvetica, Arial-Unicode, Arial, Sans-serif">from the Noun Project</text></svg>