<svg xmlns="http://www.w3.org/2000/svg" xmlns:xlink="http://www.w3.org/1999/xlink" version="1.1" x="0px" y="0px" viewBox="0 0 100 125" enable-background="new 0 0 100 100" xml:space="preserve"><path d="M49.999,0C32.236,0,17.835,12.767,17.835,28.519C17.835,44.268,49.999,100,49.999,100s32.166-55.732,32.166-71.481  C82.165,12.767,67.765,0,49.999,0z M70.645,24.374l-10.111,8.761l3.03,13.031c0.129,0.554-0.086,1.13-0.545,1.464  c-0.247,0.179-0.539,0.27-0.831,0.27c-0.253,0-0.506-0.067-0.73-0.203L50,40.788l-11.457,6.909  c-0.486,0.292-1.101,0.266-1.561-0.067c-0.459-0.334-0.675-0.91-0.546-1.464l3.03-13.031l-10.111-8.761  c-0.429-0.372-0.594-0.965-0.419-1.505c0.176-0.541,0.658-0.923,1.224-0.972l13.33-1.145l5.208-12.324  C48.919,7.906,49.432,7.565,50,7.565s1.081,0.34,1.303,0.863l5.207,12.324l13.329,1.145c0.566,0.049,1.048,0.432,1.224,0.972  C71.238,23.409,71.073,24.002,70.645,24.374z"/><text x="0" y="115" fill="#000000" font-size="5px" font-weight="bold" font-family="'Helvetica Neue', Helvetica, Arial-Unicode, Arial, Sans-serif">Created by Johan H. W. Basberg</text><text x="0" y="120" fill="#000000" font-size="5px" font-weight="bold" font-family="'Helvetica Neue', Helvetica, Arial-Unicode, Arial, Sans-serif">from the Noun Project</text></svg>